<svg xmlns="http://www.w3.org/2000/svg" id="Layer_1" data-name="Layer 1" viewBox="0 0 24 24"><path d="m15 12h-6c-1.103 0-2 .897-2 2v4c0 1.103.897 2 2 2h6c1.103 0 2-.897 2-2v-4c0-1.103-.897-2-2-2zm1 6c0 .552-.448 1-1 1h-6c-.551 0-1-.448-1-1v-4c0-.552.449-1 1-1h6c.552 0 1 .448 1 1zm-2.5-2.5c0 .276-.224.5-.5.5h-2c-.276 0-.5-.224-.5-.5s.224-.5.5-.5h2c.276 0 .5.224.5.5zm6-13.5h-1.5v-1.5c0-.276-.224-.5-.5-.5s-.5.224-.5.5v1.5h-10v-1.5c0-.276-.224-.5-.5-.5s-.5.224-.5.5v1.5h-1.5c-2.481 0-4.5 2.019-4.5 4.5v13c0 2.481 2.019 4.5 4.5 4.5h15c2.481 0 4.5-2.019 4.5-4.5v-13c0-2.481-2.019-4.5-4.5-4.5zm-15 1h15c1.93 0 3.5 1.57 3.5 3.5v1.5h-22v-1.5c0-1.93 1.57-3.5 3.5-3.5zm15 20h-15c-1.93 0-3.5-1.57-3.5-3.5v-10.5h22v10.5c0 1.93-1.57 3.5-3.5 3.5z"/></svg>